<?xml version="1.0" standalone="no"?>
<!DOCTYPE svg PUBLIC "-//W3C//DTD SVG 20010904//EN"
 "http://www.w3.org/TR/2001/REC-SVG-20010904/DTD/svg10.dtd">
<svg version="1.0" xmlns="http://www.w3.org/2000/svg"
 width="399.000000pt" height="399.000000pt" viewBox="0 0 399.000000 399.000000"
 preserveAspectRatio="xMidYMid meet">
<metadata>
Created by potrace 1.14, written by Peter Selinger 2001-2017
</metadata>
<g transform="translate(0.000000,399.000000) scale(0.100000,-0.100000)"
fill="#000000" stroke="none">
<path d="M9 3985 c-1 0 -2 -775 -3 -1722 0 -947 2 -1719 5 -1715 4 4 38 101
77 217 96 287 252 748 492 1455 111 327 219 647 240 710 71 214 181 535 192
564 11 28 12 28 34 -40 13 -38 79 -235 149 -439 69 -203 160 -471 201 -595 42
-124 80 -234 84 -245 5 -11 25 -67 44 -125 19 -58 97 -289 174 -515 77 -225
161 -473 187 -550 48 -144 74 -203 75 -174 0 8 52 159 116 335 64 175 119 330
124 344 6 20 292 819 410 1145 12 33 43 121 70 195 26 74 78 218 115 320 37
102 81 225 97 274 l31 89 34 -99 c19 -54 39 -108 43 -119 5 -11 28 -74 50
-140 39 -112 55 -158 144 -412 19 -54 69 -197 111 -318 83 -238 299 -853 370
-1055 24 -69 71 -204 105 -300 33 -96 74 -211 90 -255 15 -44 45 -128 66 -188
20 -59 39 -105 41 -103 4 3 6 2722 3 3356 l0 105 -1985 0 c-1092 0 -1986 0
-1986 0z"/>
<path d="M2876 2769 c-27 -74 -63 -174 -81 -224 -18 -49 -58 -160 -88 -245
-31 -85 -117 -326 -192 -535 -76 -209 -147 -409 -160 -445 -12 -36 -44 -123
-70 -195 -87 -242 -303 -844 -331 -924 -2 -8 -7 -12 -9 -9 -3 3 -32 83 -65
179 -32 96 -122 361 -200 589 -78 228 -159 467 -180 530 -21 63 -107 315 -190
560 -234 686 -280 823 -280 829 -1 22 -44 -98 -221 -621 -111 -326 -213 -631
-229 -678 -28 -85 -353 -1044 -469 -1384 -33 -99 -59 -181 -57 -183 2 -2 3102
-5 3823 -3 l61 0 -40 113 c-22 61 -59 168 -83 237 -24 69 -73 208 -109 310
-35 102 -79 226 -96 275 -17 50 -79 225 -136 390 -58 165 -118 336 -134 380
-16 44 -45 127 -65 185 -20 58 -49 141 -65 185 -15 44 -81 231 -145 415 -63
184 -120 344 -125 355 -5 11 -10 26 -12 34 -3 8 -26 -46 -52 -120z"/>
</g>
</svg>
